<svg width="24" height="24" viewBox="0 0 24 24" fill="none" xmlns="http://www.w3.org/2000/svg">
<path d="M15.146 12.3539L9.354 18.1459C9.28413 18.216 9.19505 18.2637 9.09804 18.2831C9.00102 18.3025 8.90043 18.2927 8.809 18.2549C8.71757 18.2171 8.6394 18.153 8.5844 18.0708C8.52939 17.9886 8.50002 17.8919 8.5 17.7929V6.20692C8.50002 6.10799 8.52939 6.01128 8.5844 5.92905C8.6394 5.84681 8.71757 5.78274 8.809 5.74495C8.90043 5.70716 9.00102 5.69734 9.09804 5.71674C9.19505 5.73614 9.28413 5.78388 9.354 5.85393L15.146 11.6459C15.1926 11.6924 15.2295 11.7475 15.2547 11.8083C15.2799 11.869 15.2929 11.9342 15.2929 11.9999C15.2929 12.0657 15.2799 12.1308 15.2547 12.1916C15.2295 12.2523 15.1926 12.3075 15.146 12.3539Z" fill="black"/>
</svg>
