<svg width="24" height="24" viewBox="0 0 24 24" fill="none" xmlns="http://www.w3.org/2000/svg">
<path fill-rule="evenodd" clip-rule="evenodd" d="M5.83983 9.85604C7.63058 13.7545 10.8123 16.8439 14.7618 18.519L14.7738 18.524L15.5378 18.864C16.0097 19.0745 16.5397 19.1161 17.0386 18.9819C17.5376 18.8477 17.9752 18.5458 18.2778 18.127L19.5518 16.364C19.5893 16.3121 19.6054 16.2478 19.5968 16.1844C19.5883 16.1209 19.5557 16.0632 19.5058 16.023L17.2818 14.228C17.2556 14.2069 17.2253 14.1912 17.1929 14.1821C17.1604 14.1729 17.1265 14.1704 17.093 14.1747C17.0596 14.179 17.0273 14.19 16.9983 14.2071C16.9692 14.2241 16.9439 14.2469 16.9238 14.274L16.0578 15.442C15.9558 15.5798 15.8096 15.6785 15.6437 15.7216C15.4778 15.7648 15.302 15.7497 15.1458 15.679C12.1869 14.3386 9.81628 11.968 8.47583 9.00904C8.40514 8.85283 8.3901 8.67712 8.43323 8.51117C8.47635 8.34522 8.57503 8.19906 8.71283 8.09704L9.87983 7.23004C9.90695 7.20999 9.92973 7.18467 9.94681 7.1556C9.96389 7.12652 9.9749 7.09429 9.9792 7.06085C9.9835 7.0274 9.98099 6.99344 9.97181 6.96099C9.96264 6.92854 9.947 6.89828 9.92583 6.87204L8.13183 4.64804C8.09169 4.59817 8.03395 4.5656 7.9705 4.55704C7.90706 4.54848 7.84275 4.56459 7.79083 4.60204L6.01783 5.88204C5.59623 6.18614 5.29294 6.62685 5.15949 7.12927C5.02605 7.63169 5.07069 8.16481 5.28583 8.63804L5.83983 9.85604ZM14.1698 19.897C9.87894 18.075 6.42243 14.7173 4.47683 10.481L4.47483 10.479L3.92083 9.25904C3.56225 8.47047 3.48774 7.58208 3.70996 6.74481C3.93217 5.90753 4.43741 5.17301 5.13983 4.66604L6.91283 3.38604C7.27596 3.12396 7.72574 3.01106 8.1696 3.07059C8.61345 3.13012 9.01759 3.35754 9.29883 3.70604L11.0938 5.93104C11.242 6.11461 11.3515 6.32623 11.4157 6.55319C11.48 6.78016 11.4977 7.01777 11.4678 7.25175C11.4379 7.48573 11.361 7.71126 11.2418 7.91478C11.1225 8.11829 10.9634 8.2956 10.7738 8.43604L10.1038 8.93204C11.2366 11.1284 13.0255 12.9173 15.2218 14.05L15.7188 13.38C15.8593 13.1907 16.0365 13.0316 16.24 12.9124C16.4434 12.7933 16.6688 12.7164 16.9027 12.6866C17.1365 12.6567 17.374 12.6744 17.6009 12.7385C17.8277 12.8027 18.0393 12.9121 18.2228 13.06L20.4478 14.855C20.7966 15.1363 21.0242 15.5406 21.0837 15.9847C21.1433 16.4288 21.0302 16.8788 20.7678 17.242L19.4938 19.006C18.9895 19.704 18.2604 20.2071 17.4289 20.4309C16.5975 20.6547 15.7143 20.5855 14.9278 20.235L14.1698 19.897Z" fill="black" fill-opacity="0.36"/>
</svg>
