<svg width="24" height="24" viewBox="0 0 24 24" fill="none" xmlns="http://www.w3.org/2000/svg">
<g clip-path="url(#clip0_83_3231)">
<path fill-rule="evenodd" clip-rule="evenodd" d="M12 13.5C13.0609 13.5 14.0783 13.0786 14.8284 12.3284C15.5786 11.5783 16 10.5609 16 9.5C16 8.43913 15.5786 7.42172 14.8284 6.67157C14.0783 5.92143 13.0609 5.5 12 5.5C10.9391 5.5 9.92172 5.92143 9.17157 6.67157C8.42143 7.42172 8 8.43913 8 9.5C8 10.5609 8.42143 11.5783 9.17157 12.3284C9.92172 13.0786 10.9391 13.5 12 13.5ZM12 12.5C12.394 12.5 12.7841 12.4224 13.1481 12.2716C13.512 12.1209 13.8427 11.8999 14.1213 11.6213C14.3999 11.3427 14.6209 11.012 14.7716 10.6481C14.9224 10.2841 15 9.89397 15 9.5C15 9.10603 14.9224 8.71593 14.7716 8.35195C14.6209 7.98797 14.3999 7.65726 14.1213 7.37868C13.8427 7.1001 13.512 6.87913 13.1481 6.72836C12.7841 6.5776 12.394 6.5 12 6.5C11.2044 6.5 10.4413 6.81607 9.87868 7.37868C9.31607 7.94129 9 8.70435 9 9.5C9 10.2956 9.31607 11.0587 9.87868 11.6213C10.4413 12.1839 11.2044 12.5 12 12.5Z" fill="black" fill-opacity="0.36"/>
<path fill-rule="evenodd" clip-rule="evenodd" d="M22 12C22 17.523 17.523 22 12 22C6.477 22 2 17.523 2 12C2 6.477 6.477 2 12 2C17.523 2 22 6.477 22 12ZM16.815 19.605C15.3757 20.5192 13.7051 21.0032 12 21C10.2542 21.0032 8.54553 20.4957 7.0845 19.54C6.9645 19.39 6.84283 19.235 6.7195 19.075C6.57645 18.8876 6.49929 18.6582 6.5 18.4225C6.5 17.884 6.887 17.4325 7.4045 17.357C10.827 16.857 13.1835 16.9 16.6105 17.3745C16.8586 17.4108 17.0851 17.5354 17.2486 17.7255C17.412 17.9156 17.5013 18.1583 17.5 18.409C17.5 18.649 17.4175 18.882 17.2685 19.064C17.1148 19.251 16.9637 19.4313 16.815 19.605ZM18.4925 18.233C18.4125 17.297 17.702 16.516 16.7475 16.384C13.2395 15.8985 10.7875 15.852 7.26 16.3675C6.3 16.5075 5.5925 17.2955 5.5085 18.234C3.89616 16.5595 2.99682 14.3245 3 12C3 7.0295 7.0295 3 12 3C16.9705 3 21 7.0295 21 12C21.0032 14.3241 20.1042 16.5586 18.4925 18.233Z" fill="black" fill-opacity="0.36"/>
</g>
<defs>
<clipPath id="clip0_83_3231">
<rect width="24" height="24" fill="white"/>
</clipPath>
</defs>
</svg>
